<mxfile host="app.diagrams.net" modified="2020-10-19T11:36:02.647Z" agent="5.0 (Windows)" etag="v1A23JhYLvXSu5_sz7Gm" version="13.8.0" type="github">
  <diagram id="gKa0mY4DG8_WBEHhADff" name="Page-1">
    <mxGraphModel dx="2068" dy="1262" grid="1" gridSize="10" guides="1" tooltips="1" connect="1" arrows="1" fold="1" page="1" pageScale="1" pageWidth="850" pageHeight="1100" math="0" shadow="0">
      <root>
        <mxCell id="0" />
        <mxCell id="1" parent="0" />
        <mxCell id="VXQfpPHr32JYNe_6cWKV-6" style="edgeStyle=orthogonalEdgeStyle;rounded=0;orthogonalLoop=1;jettySize=auto;html=1;entryX=0.5;entryY=0;entryDx=0;entryDy=0;" edge="1" parent="1" source="VXQfpPHr32JYNe_6cWKV-1" target="VXQfpPHr32JYNe_6cWKV-3">
          <mxGeometry relative="1" as="geometry" />
        </mxCell>
        <mxCell id="VXQfpPHr32JYNe_6cWKV-1" value="" style="ellipse;html=1;shape=startState;fillColor=#000000;strokeColor=#ff0000;" vertex="1" parent="1">
          <mxGeometry x="465" y="60" width="30" height="30" as="geometry" />
        </mxCell>
        <mxCell id="VXQfpPHr32JYNe_6cWKV-24" style="edgeStyle=orthogonalEdgeStyle;rounded=0;orthogonalLoop=1;jettySize=auto;html=1;exitX=0.25;exitY=1;exitDx=0;exitDy=0;" edge="1" parent="1" source="VXQfpPHr32JYNe_6cWKV-3" target="VXQfpPHr32JYNe_6cWKV-10">
          <mxGeometry relative="1" as="geometry">
            <Array as="points">
              <mxPoint x="440" y="300" />
              <mxPoint x="240" y="300" />
            </Array>
          </mxGeometry>
        </mxCell>
        <mxCell id="VXQfpPHr32JYNe_6cWKV-25" style="edgeStyle=orthogonalEdgeStyle;rounded=0;orthogonalLoop=1;jettySize=auto;html=1;entryX=0.5;entryY=0;entryDx=0;entryDy=0;exitX=0.75;exitY=1;exitDx=0;exitDy=0;" edge="1" parent="1" source="VXQfpPHr32JYNe_6cWKV-3" target="VXQfpPHr32JYNe_6cWKV-11">
          <mxGeometry relative="1" as="geometry">
            <Array as="points">
              <mxPoint x="520" y="300" />
              <mxPoint x="720" y="300" />
            </Array>
          </mxGeometry>
        </mxCell>
        <mxCell id="VXQfpPHr32JYNe_6cWKV-3" value="&lt;div&gt;Esperando selección&lt;/div&gt;&lt;div&gt;de modo de registro&lt;/div&gt;" style="rounded=1;whiteSpace=wrap;html=1;arcSize=16;fontColor=#000000;fillColor=#ffffc0;strokeColor=#ff0000;" vertex="1" parent="1">
          <mxGeometry x="400" y="160" width="160" height="80" as="geometry" />
        </mxCell>
        <mxCell id="VXQfpPHr32JYNe_6cWKV-23" style="edgeStyle=orthogonalEdgeStyle;rounded=0;orthogonalLoop=1;jettySize=auto;html=1;entryX=0.5;entryY=0;entryDx=0;entryDy=0;" edge="1" parent="1" source="VXQfpPHr32JYNe_6cWKV-10" target="VXQfpPHr32JYNe_6cWKV-21">
          <mxGeometry relative="1" as="geometry" />
        </mxCell>
        <mxCell id="VXQfpPHr32JYNe_6cWKV-10" value="Esperando tarjeta" style="rounded=1;whiteSpace=wrap;html=1;arcSize=16;fontColor=#000000;fillColor=#ffffc0;strokeColor=#ff0000;" vertex="1" parent="1">
          <mxGeometry x="160" y="320" width="160" height="80" as="geometry" />
        </mxCell>
        <mxCell id="VXQfpPHr32JYNe_6cWKV-11" value="Esperando huella digital" style="rounded=1;whiteSpace=wrap;html=1;arcSize=16;fontColor=#000000;fillColor=#ffffc0;strokeColor=#ff0000;" vertex="1" parent="1">
          <mxGeometry x="640" y="320" width="160" height="80" as="geometry" />
        </mxCell>
        <mxCell id="VXQfpPHr32JYNe_6cWKV-14" style="edgeStyle=orthogonalEdgeStyle;rounded=0;orthogonalLoop=1;jettySize=auto;html=1;exitX=0.281;exitY=1;exitDx=0;exitDy=0;exitPerimeter=0;entryX=0.5;entryY=0;entryDx=0;entryDy=0;" edge="1" parent="1" source="VXQfpPHr32JYNe_6cWKV-11" target="VXQfpPHr32JYNe_6cWKV-15">
          <mxGeometry relative="1" as="geometry">
            <mxPoint x="605" y="510" as="targetPoint" />
            <mxPoint x="600" y="400" as="sourcePoint" />
          </mxGeometry>
        </mxCell>
        <mxCell id="VXQfpPHr32JYNe_6cWKV-15" value="" style="ellipse;html=1;shape=endState;fillColor=#000000;strokeColor=#ff0000;" vertex="1" parent="1">
          <mxGeometry x="670" y="480" width="30" height="30" as="geometry" />
        </mxCell>
        <mxCell id="VXQfpPHr32JYNe_6cWKV-17" value="" style="ellipse;html=1;shape=endState;fillColor=#000000;strokeColor=#ff0000;" vertex="1" parent="1">
          <mxGeometry x="740" y="480" width="30" height="30" as="geometry" />
        </mxCell>
        <mxCell id="VXQfpPHr32JYNe_6cWKV-18" style="edgeStyle=orthogonalEdgeStyle;rounded=0;orthogonalLoop=1;jettySize=auto;html=1;" edge="1" target="VXQfpPHr32JYNe_6cWKV-17" parent="1">
          <mxGeometry relative="1" as="geometry">
            <mxPoint x="670" y="520" as="targetPoint" />
            <mxPoint x="755" y="400" as="sourcePoint" />
          </mxGeometry>
        </mxCell>
        <mxCell id="VXQfpPHr32JYNe_6cWKV-19" value="" style="ellipse;html=1;shape=endState;fillColor=#000000;strokeColor=#ff0000;" vertex="1" parent="1">
          <mxGeometry x="-160" y="345" width="30" height="30" as="geometry" />
        </mxCell>
        <mxCell id="VXQfpPHr32JYNe_6cWKV-20" style="edgeStyle=orthogonalEdgeStyle;rounded=0;orthogonalLoop=1;jettySize=auto;html=1;exitX=0;exitY=0.5;exitDx=0;exitDy=0;" edge="1" parent="1" target="VXQfpPHr32JYNe_6cWKV-19" source="VXQfpPHr32JYNe_6cWKV-10">
          <mxGeometry relative="1" as="geometry">
            <mxPoint x="140" y="500" as="targetPoint" />
            <mxPoint x="144.96000000000004" y="380" as="sourcePoint" />
          </mxGeometry>
        </mxCell>
        <mxCell id="VXQfpPHr32JYNe_6cWKV-21" value="Esperando código" style="rounded=1;whiteSpace=wrap;html=1;arcSize=16;fontColor=#000000;fillColor=#ffffc0;strokeColor=#ff0000;" vertex="1" parent="1">
          <mxGeometry x="160" y="560" width="160" height="80" as="geometry" />
        </mxCell>
        <mxCell id="VXQfpPHr32JYNe_6cWKV-22" style="edgeStyle=orthogonalEdgeStyle;rounded=0;orthogonalLoop=1;jettySize=auto;html=1;entryX=0;entryY=0.25;entryDx=0;entryDy=0;exitX=0;exitY=0.75;exitDx=0;exitDy=0;" edge="1" parent="1" source="VXQfpPHr32JYNe_6cWKV-21" target="VXQfpPHr32JYNe_6cWKV-21">
          <mxGeometry relative="1" as="geometry">
            <Array as="points">
              <mxPoint x="120" y="620" />
              <mxPoint x="120" y="580" />
            </Array>
          </mxGeometry>
        </mxCell>
        <mxCell id="VXQfpPHr32JYNe_6cWKV-27" value="&lt;div&gt;Se seleccionó la opción &quot;registrar asistencia&quot;/&lt;/div&gt;&lt;div&gt;mostrar las opciones de registro&lt;br&gt;&lt;/div&gt;" style="text;html=1;strokeColor=none;fillColor=none;align=left;verticalAlign=middle;whiteSpace=wrap;rounded=0;" vertex="1" parent="1">
          <mxGeometry x="490" y="110" width="320" height="30" as="geometry" />
        </mxCell>
        <mxCell id="VXQfpPHr32JYNe_6cWKV-28" value="&lt;div align=&quot;right&quot;&gt;Se seleccionó la opción &quot;registro por tarjeta&quot;/&lt;/div&gt;&lt;div align=&quot;right&quot;&gt;activar el lector de tarjeta&lt;br&gt;&lt;/div&gt;" style="text;html=1;strokeColor=none;fillColor=none;align=right;verticalAlign=middle;whiteSpace=wrap;rounded=0;" vertex="1" parent="1">
          <mxGeometry x="110" y="250" width="320" height="40" as="geometry" />
        </mxCell>
        <mxCell id="VXQfpPHr32JYNe_6cWKV-33" value="&lt;div align=&quot;right&quot;&gt;Se ingresó una tarjeta [tarjeta válida]/&lt;/div&gt;&lt;div align=&quot;right&quot;&gt;habilitar el teclado numérico virtual&lt;br&gt;&lt;/div&gt;" style="text;html=1;strokeColor=none;fillColor=none;align=right;verticalAlign=middle;whiteSpace=wrap;rounded=0;" vertex="1" parent="1">
          <mxGeometry x="-90" y="460" width="320" height="40" as="geometry" />
        </mxCell>
        <mxCell id="VXQfpPHr32JYNe_6cWKV-34" value="&lt;div align=&quot;right&quot;&gt;Se ingresó 1 dígito [total de dígitos ingresados igual a 4, código inválido,&lt;/div&gt;&lt;div align=&quot;right&quot;&gt;cantidad de intentos fallidos menor que tres]/&lt;/div&gt;&lt;div align=&quot;right&quot;&gt;indicar el problema, actualizar el contador de intentos fallidos&lt;br&gt;&lt;/div&gt;" style="text;html=1;strokeColor=none;fillColor=none;align=right;verticalAlign=middle;whiteSpace=wrap;rounded=0;" vertex="1" parent="1">
          <mxGeometry x="-560" y="580" width="670" height="40" as="geometry" />
        </mxCell>
        <mxCell id="VXQfpPHr32JYNe_6cWKV-35" value="" style="ellipse;html=1;shape=endState;fillColor=#000000;strokeColor=#ff0000;" vertex="1" parent="1">
          <mxGeometry x="190" y="720" width="30" height="30" as="geometry" />
        </mxCell>
        <mxCell id="VXQfpPHr32JYNe_6cWKV-36" style="edgeStyle=orthogonalEdgeStyle;rounded=0;orthogonalLoop=1;jettySize=auto;html=1;" edge="1" parent="1" target="VXQfpPHr32JYNe_6cWKV-35">
          <mxGeometry relative="1" as="geometry">
            <mxPoint x="200" y="680" as="targetPoint" />
            <mxPoint x="205" y="640" as="sourcePoint" />
          </mxGeometry>
        </mxCell>
        <mxCell id="VXQfpPHr32JYNe_6cWKV-37" value="" style="ellipse;html=1;shape=endState;fillColor=#000000;strokeColor=#ff0000;" vertex="1" parent="1">
          <mxGeometry x="260" y="720" width="30" height="30" as="geometry" />
        </mxCell>
        <mxCell id="VXQfpPHr32JYNe_6cWKV-38" style="edgeStyle=orthogonalEdgeStyle;rounded=0;orthogonalLoop=1;jettySize=auto;html=1;" edge="1" parent="1" target="VXQfpPHr32JYNe_6cWKV-37">
          <mxGeometry relative="1" as="geometry">
            <mxPoint x="270" y="680" as="targetPoint" />
            <mxPoint x="275" y="640" as="sourcePoint" />
          </mxGeometry>
        </mxCell>
        <mxCell id="VXQfpPHr32JYNe_6cWKV-39" value="&lt;div align=&quot;right&quot;&gt;Se ingresaron 4 dígitos [código inválido,&lt;/div&gt;&lt;div align=&quot;right&quot;&gt;cantidad de intentos fallidos igual a tres]/&lt;/div&gt;&lt;div align=&quot;right&quot;&gt;indicar el problema, devolver tarjeta, emitir pitido&lt;br&gt;&lt;/div&gt;" style="text;html=1;strokeColor=none;fillColor=none;align=right;verticalAlign=middle;whiteSpace=wrap;rounded=0;" vertex="1" parent="1">
          <mxGeometry x="-300" y="660" width="490" height="40" as="geometry" />
        </mxCell>
        <mxCell id="VXQfpPHr32JYNe_6cWKV-40" value="&lt;div align=&quot;right&quot;&gt;Se ingresó una tarjeta [tarjeta inválida]/&lt;/div&gt;&lt;div align=&quot;right&quot;&gt;indicar el problema, devolver tarjeta, emitir pitido&lt;br&gt;&lt;/div&gt;" style="text;html=1;strokeColor=none;fillColor=none;align=right;verticalAlign=middle;whiteSpace=wrap;rounded=0;" vertex="1" parent="1">
          <mxGeometry x="-120" y="340" width="270" height="40" as="geometry" />
        </mxCell>
        <mxCell id="VXQfpPHr32JYNe_6cWKV-41" value="&lt;div align=&quot;left&quot;&gt;Se seleccionó la opción &quot;registro por huella digital&quot;/&lt;/div&gt;&lt;div align=&quot;left&quot;&gt;activar el lector de huella digital&lt;br&gt;&lt;/div&gt;" style="text;html=1;strokeColor=none;fillColor=none;align=left;verticalAlign=middle;whiteSpace=wrap;rounded=0;" vertex="1" parent="1">
          <mxGeometry x="530" y="250" width="320" height="40" as="geometry" />
        </mxCell>
        <mxCell id="VXQfpPHr32JYNe_6cWKV-42" value="&lt;div align=&quot;right&quot;&gt;Se detectó una huella dactilar [huella no reconocida]/&lt;/div&gt;&lt;div align=&quot;right&quot;&gt;mostrar mensaje de error, emitir pitido&lt;br&gt;&lt;/div&gt;" style="text;html=1;strokeColor=none;fillColor=none;align=right;verticalAlign=middle;whiteSpace=wrap;rounded=0;" vertex="1" parent="1">
          <mxGeometry x="350" y="420" width="320" height="40" as="geometry" />
        </mxCell>
        <mxCell id="VXQfpPHr32JYNe_6cWKV-43" value="&lt;div align=&quot;left&quot;&gt;Se detectó una huella dactilar [huella válida]/&lt;/div&gt;&lt;div align=&quot;left&quot;&gt;registrar fecha y horario de entrada, mostrar datos en el display y mensaje de éxito&lt;br&gt;&lt;/div&gt;" style="text;html=1;strokeColor=none;fillColor=none;align=left;verticalAlign=middle;whiteSpace=wrap;rounded=0;" vertex="1" parent="1">
          <mxGeometry x="770" y="420" width="320" height="40" as="geometry" />
        </mxCell>
        <mxCell id="VXQfpPHr32JYNe_6cWKV-44" value="&lt;div align=&quot;left&quot;&gt;Se detectó una huella dactilar [huella válida]/&lt;/div&gt;&lt;div align=&quot;left&quot;&gt;registrar fecha y horario de entrada, mostrar datos en el display y mensaje de éxito&lt;br&gt;&lt;/div&gt;" style="text;html=1;strokeColor=none;fillColor=none;align=left;verticalAlign=middle;whiteSpace=wrap;rounded=0;" vertex="1" parent="1">
          <mxGeometry x="290" y="660" width="320" height="40" as="geometry" />
        </mxCell>
        <mxCell id="VXQfpPHr32JYNe_6cWKV-45" style="edgeStyle=orthogonalEdgeStyle;rounded=0;orthogonalLoop=1;jettySize=auto;html=1;entryX=1;entryY=0.75;entryDx=0;entryDy=0;exitX=1;exitY=0.25;exitDx=0;exitDy=0;" edge="1" parent="1" source="VXQfpPHr32JYNe_6cWKV-21" target="VXQfpPHr32JYNe_6cWKV-21">
          <mxGeometry relative="1" as="geometry">
            <Array as="points">
              <mxPoint x="360" y="580" />
              <mxPoint x="360" y="620" />
            </Array>
          </mxGeometry>
        </mxCell>
        <mxCell id="VXQfpPHr32JYNe_6cWKV-48" value="&lt;div align=&quot;left&quot;&gt;Se ingresó 1 dígito [total de dígitos ingresados menor a 4]/&lt;/div&gt;&lt;div align=&quot;left&quot;&gt;esperar código&lt;br&gt;&lt;/div&gt;" style="text;html=1;strokeColor=none;fillColor=none;align=left;verticalAlign=middle;whiteSpace=wrap;rounded=0;" vertex="1" parent="1">
          <mxGeometry x="370" y="580" width="350" height="40" as="geometry" />
        </mxCell>
      </root>
    </mxGraphModel>
  </diagram>
</mxfile>
